# xmcd
#
# Track frame offsets: 
#        150
#        14619
#        31569
#        48055
#        68684
#        85066
#        101664
#        116602
#        133287
#        145850
#        160581
#        170804
#        187772
#
# Disc length: 2732 seconds
#
# Revision: 5
# Processed by: cddbd v1.5.2PL0 Copyright (c) Steve Scherf et al.
# Submitted via: ExactAudioCopyFreeDBPlugin 1.0
#
DISCID=a10aaa0d
DTITLE=David Ball - Amigo
DYEAR=2001
DGENRE=Country
TTITLE0=Amigo
TTITLE1=Missing Her Blues
TTITLE2=She Always Talked About Mexico
TTITLE3=Riding With Private Malone
TTITLE4=Whenever You Come Back To Me
TTITLE5=Loser Friendly
TTITLE6=Linger Awhile
TTITLE7=Trying Not To Love You
TTITLE8=New Shiner Polka
TTITLE9=Texas Echo
TTITLE10=Swing Baby
TTITLE11=Just Out Of Reach
TTITLE12=When The Devil Wants To Wrestle
EXTD=
EXTT0=
EXTT1=
EXTT2=
EXTT3=
EXTT4=
EXTT5=
EXTT6=
EXTT7=
EXTT8=
EXTT9=
EXTT10=
EXTT11=
EXTT12=
PLAYORDER=
